<?xml version="1.0" encoding="UTF-8"?>
<!DOCTYPE svg PUBLIC "-//W3C//DTD SVG 1.1//EN" "http://www.w3.org/Graphics/SVG/1.1/DTD/svg11.dtd">
<!-- Creator: CorelDRAW X7 -->
<svg xmlns="http://www.w3.org/2000/svg" xml:space="preserve" width="8.16288in" height="0.829728in" version="1.1" style="shape-rendering:geometricPrecision; text-rendering:geometricPrecision; image-rendering:optimizeQuality; fill-rule:evenodd; clip-rule:evenodd"
viewBox="0 0 8081 821"
 xmlns:xlink="http://www.w3.org/1999/xlink">
 <defs>
  <style type="text/css">
   <![CDATA[
    .fil0 {fill:#fff7ef}
   ]]>
  </style>
 </defs>
 <g id="Layer_x0020_1">
  <metadata id="CorelCorpID_0Corel-Layer"/>
  <path class="fil0" d="M0 0l0 705c181,15 195,113 409,116 161,0 210,-50 274,-84 78,-41 174,-40 251,0 64,34 114,84 273,84 157,-2 206,-55 292,-89 84,-34 151,-33 235,0 86,34 135,87 292,89 159,0 209,-50 273,-84 76,-40 173,-41 250,0 64,34 114,84 274,84 158,-2 207,-56 294,-90 83,-32 149,-32 232,1 86,34 135,87 293,89 160,0 209,-50 274,-84 77,-41 173,-40 250,0 64,34 114,84 273,84 156,-2 206,-55 291,-89 84,-33 152,-34 235,0 86,34 136,87 293,89 159,0 209,-50 273,-84 77,-40 173,-41 250,0 65,34 114,84 274,84 159,-2 208,-56 295,-90 83,-33 150,-32 233,1 85,34 135,87 291,89 160,0 210,-50 274,-84 77,-41 174,-40 251,0 64,34 113,84 273,84 214,-3 228,-101 409,-116l0 -705 -8081 0z"/>
 </g>
</svg>
